<svg xmlns="http://www.w3.org/2000/svg" width="640" height="640"
     viewBox="0 0 640 640" fill="none">
    <path fill-rule="evenodd" fill="rgba(29, 141, 244, 1)"
          d="M463.892 96.745L428.024 111.602L399.85 123.272L388.522 95.8906L373.983 60.791L368.768 60.8323Q366.777 60.8437 361.799 61.1998Q356.844 61.5543 354.178 61.874Q346.233 62.8279 337.615 64.993Q329.004 67.1565 321.499 70.0827L320.248 70.5701L319.315 70.1834Q314.04 67.9986 307.522 66.1756Q301.238 64.4183 294.429 63.1708Q287.624 61.9241 281.062 61.3273Q274.266 60.7093 268.443 60.8557L263.236 61.0103L236.745 124.967L209.324 113.683L174.15 99.1849L169.811 103.701Q165.964 107.715 162.11 112.604Q158.359 117.36 154.919 122.539Q151.472 127.727 148.659 132.855Q145.753 138.151 143.776 142.925L143.392 143.834L142.32 144.301Q136.986 146.615 131.463 149.691Q126.046 152.707 120.77 156.275Q115.494 159.843 110.689 163.74Q105.788 167.716 101.671 171.796L99.0211 174.4Q98.2065 175.178 97.7969 176.309Q97.5523 176.984 97.4981 177.712Q97.4457 178.414 97.5759 179.172Q97.6932 179.855 98.0203 180.854Q98.5114 182.353 99.9033 185.864Q102.181 191.609 111.061 213.079L122.713 241.274L95.3554 252.658L60.2222 267.295L60.3795 273.627Q60.6649 285.244 62.9946 297.038Q65.3248 308.833 69.4046 319.31L70.0346 320.934L69.6526 321.874Q68.513 324.625 67.0087 329.32Q65.5171 333.975 64.5643 337.744Q62.5611 345.668 61.4886 353.868Q60.418 362.054 60.3206 370.163L60.2357 377.679L96.201 392.648L124.443 404.42L113.147 431.823L98.6574 466.978L103.477 471.618Q105.672 473.728 108.952 476.478Q112.182 479.186 115.308 481.546Q118.314 483.817 121.817 486.133Q125.226 488.386 128.801 490.482Q132.388 492.584 135.795 494.324Q139.33 496.129 142.362 497.385L143.321 497.782L143.718 498.681Q148.709 510.047 155.832 520.557Q162.957 531.067 171.72 539.985L176.625 544.982L212.537 530.106L240.771 518.412L241.998 521.316L253.862 549.935L255.228 553.256L266.597 580.954L273.098 580.797Q284.847 580.491 296.274 578.21Q307.67 575.935 318.949 571.656L320.372 571.12L321.317 571.511Q326.285 573.568 332.214 575.276Q337.981 576.936 344.255 578.15Q350.514 579.361 356.799 580.037Q363.22 580.726 369.197 580.806L377.137 580.928L392.111 544.949L403.877 516.723L431.308 528.011L466.466 542.503L470.313 538.492Q475.74 532.826 480.671 526.294Q485.617 519.743 489.683 512.826Q491.468 509.793 493.614 505.596Q495.798 501.326 496.849 498.788L497.229 497.869L498.903 497.117Q521.052 487.282 539.613 469.219L544.428 464.564L529.571 428.616L517.876 400.381L522.813 398.264L547.872 387.765L554.725 384.924L580.354 374.308L580.278 368.59Q580.266 367.543 580.158 365.482Q580.054 363.49 579.918 361.651Q578.398 341.095 571.076 322.057L570.583 320.777L570.967 319.851Q572.11 317.091 573.617 312.361Q575.092 307.728 576.049 303.942Q580.098 287.933 580.293 271.523L580.378 264.008L544.431 249.047L516.187 237.273L527.467 209.861L541.965 174.687L537.449 170.347Q533.461 166.518 528.568 162.657Q523.813 158.905 518.625 155.455Q513.429 152 508.303 149.182Q503.003 146.269 498.252 144.302L497.308 143.911L496.85 142.857Q493.931 136.129 489.971 129.35Q486.035 122.612 481.183 116.018Q480.275 114.784 478.503 112.64Q476.885 110.681 474.915 108.405Q472.943 106.126 471.217 104.222Q469.329 102.138 468.201 101.019L463.892 96.745ZM493.53 147.758L492.265 144.852C488.525 136.232 483.41 127.482 477.156 118.981C474.884 115.894 467.529 107.394 464.681 104.57L462.732 102.637L429.937 116.221L401.762 127.892L397.143 129.805L395.231 125.185L383.902 97.8022L370.653 65.8175L368.807 65.8321C366.369 65.8461 358.185 66.4292 354.774 66.8384C344.598 68.0601 332.929 70.9928 323.315 74.7412L320.191 75.9585L317.401 74.8028C303.891 69.2068 283.526 65.4781 268.569 65.8541L266.618 65.9121L239.455 131.489L207.421 118.307L175.395 105.106L173.416 107.166C163.505 117.508 153.448 132.64 148.395 144.838L147.221 147.62L144.316 148.885C130.576 154.846 115.779 164.853 105.191 175.347C103.955 176.572 102.757 177.746 102.526 177.966C102.162 178.314 103.906 182.699 115.681 211.168L129.239 243.974L97.2763 257.274L65.3057 270.594L65.3779 273.503C65.7447 288.433 68.841 304.084 74.0638 317.495L75.4142 320.977L74.2846 323.757C72.8558 327.206 70.6329 334.14 69.4118 338.97C66.8344 349.165 65.4452 359.816 65.3203 370.223L65.2735 374.36L98.1222 388.031L130.963 401.721L104.577 465.736L106.945 468.016C109.713 470.678 114.303 474.522 118.32 477.555C126.095 483.428 136.586 489.581 144.275 492.766L147.084 493.929L148.291 496.659C154.706 511.271 164.024 525.019 175.287 536.481L177.829 539.071L210.624 525.487L243.445 511.892L246.603 519.37C248.342 523.474 254.309 537.865 259.852 551.355L269.916 575.872L272.977 575.798C288.07 575.406 302.665 572.486 317.176 566.981L320.459 565.743L323.231 566.892C335.906 572.142 353.809 575.601 369.263 575.806L373.824 575.877L387.495 543.028L401.177 510.205L433.211 523.388L465.218 536.581L466.704 535.031C473.654 527.775 480.136 519.199 485.373 510.292C487.642 506.436 490.923 500.028 492.229 496.875L493.37 494.122L496.854 492.556C511.07 486.243 524.191 477.25 536.126 465.635L538.508 463.332L524.951 430.526L511.366 397.732L520.843 393.669C526.05 391.435 540.437 385.424 552.81 380.305L575.309 370.985L575.278 368.656C575.264 367.375 575.106 364.383 574.932 362.018C573.956 348.824 571.112 336.078 566.409 323.852L565.199 320.71L566.347 317.938C567.773 314.495 569.983 307.536 571.202 302.717C573.817 292.377 575.168 282.007 575.293 271.464L575.34 267.327L542.51 253.663L509.669 239.973L522.843 207.958L536.044 175.932L533.984 173.953C523.701 164.077 508.475 153.948 496.338 148.921L493.53 147.758ZM470.236 166.836C470.675 166.988 470.68 168.056 470.51 192.775C470.459 200.41 470.45 208.857 470.482 211.554C470.786 236.658 473.612 250.369 481.064 262.935C486.78 272.57 494.832 281.3 511.885 296.396C518.091 301.889 527.935 310.902 532.562 315.309C534.589 317.24 535.376 318.15 535.228 318.383C535.113 318.565 531.723 321.98 527.689 325.976C503.696 349.732 500.04 353.455 494.114 360.257C475.237 381.924 470.857 396.625 472.675 432.188C472.855 435.655 473.188 441.987 473.425 446.266C473.954 455.903 474.47 470.448 474.295 470.872C474.168 471.179 467.733 471.22 443.48 471.054C411.728 470.835 399.184 472.258 386.418 477.53C378.935 480.621 373.533 484.041 366.178 490.383C360.152 495.579 354.382 501.544 343.647 513.63C335.892 522.361 323.662 535.596 323.081 535.895C322.956 535.961 320.134 533.256 316.799 529.894C307.291 520.296 302.374 515.339 300.52 513.431C299.581 512.463 296.454 509.344 293.581 506.509C276.429 489.608 265.793 481.784 254.119 477.499C241.657 472.931 229.295 471.982 202.967 473.521C187.93 474.402 170.88 475.081 170.278 474.831C170.243 474.817 170.212 474.812 170.184 474.8C169.929 474.687 169.952 473.944 170.032 459.381C170.201 428.688 170.171 426.426 169.617 417.58C168.394 398.044 165.218 387.111 157.314 375.315C151.89 367.219 144.346 359.24 130.165 346.578C116.61 334.474 105.512 324.273 105.24 323.655C105.118 323.383 106.013 322.484 121.441 307.224C138.419 290.431 142.018 286.726 147.546 280.262C165.469 259.303 169.752 244.333 167.917 209.079C167.732 205.529 167.371 198.92 167.116 194.394C166.636 185.909 166.066 170.549 166.233 170.498C166.285 170.482 168.394 170.472 170.913 170.488C215.242 170.765 215.607 170.756 225.339 170.063C232.683 169.54 234.951 169.271 240.46 168.209C260.022 164.436 272.082 156.046 295.016 130.257C305.389 118.593 316.953 106.017 317.514 105.784C317.775 105.676 324.544 112.42 339.282 127.443C361.658 150.251 373.189 159.253 386.143 164.042C397.852 168.371 410.581 169.613 431.491 168.495C452.936 167.349 457.32 167.142 463.267 166.936C466.871 166.812 470.018 166.745 470.236 166.836ZM465.601 178.292Q465.582 182.215 465.51 192.741L465.51 192.745L465.493 195.629L465.482 211.614Q465.6 221.342 466.233 228.827Q466.895 236.641 468.195 242.955Q469.518 249.375 471.64 254.922Q473.712 260.34 476.764 265.486Q479.084 269.397 481.908 273.124Q484.79 276.929 488.546 281.006Q492.246 285.021 497.228 289.773Q502.002 294.325 508.571 300.14Q513.147 304.191 519.441 309.949Q525.011 315.045 528.379 318.232Q526.515 320.101 524.171 322.423Q514.465 332.033 509.625 336.856Q503.878 342.583 500.555 345.975Q497.186 349.414 494.816 351.976Q492.771 354.186 490.344 356.972Q486.597 361.274 483.709 365.096Q480.631 369.17 478.276 373.033Q475.82 377.06 473.997 381.107Q472.14 385.229 470.842 389.583Q469.552 393.913 468.751 398.686Q467.971 403.337 467.614 408.658Q467.273 413.76 467.3 419.798Q467.326 425.482 467.682 432.451L468.104 440.464L468.432 446.54Q468.827 453.736 469.127 462.201Q469.206 464.416 469.254 466.13Q468.623 466.136 467.905 466.14Q461.608 466.178 443.514 466.054Q431.188 465.969 422.805 466.234Q413.841 466.518 407.265 467.265Q400.56 468.026 395.036 469.414Q389.762 470.739 384.509 472.909Q381.474 474.163 378.859 475.497Q376.138 476.886 373.571 478.516Q371.017 480.136 368.364 482.154Q365.823 484.087 362.914 486.596Q358.239 490.626 353.087 495.944Q348.058 501.135 339.909 510.31Q334.147 516.797 327.001 524.531Q324.627 527.101 322.91 528.926Q321.744 527.779 320.355 526.379L304.054 509.894L298.053 503.898L297.091 502.947Q290.474 496.427 285.134 491.704Q279.576 486.787 274.758 483.245Q269.856 479.64 265.209 477.083Q260.634 474.564 255.84 472.804Q250.738 470.935 245.612 469.843Q240.307 468.714 234.13 468.235Q228.068 467.765 220.259 467.851Q212.879 467.933 202.675 468.53Q191.485 469.185 181.01 469.604Q177.463 469.746 174.983 469.817Q174.989 467.059 175.016 462.178Q175.025 460.584 175.032 459.409Q175.101 446.768 175.116 441.158Q175.135 434.147 175.095 430.238Q175.056 426.313 174.935 423.326Q174.842 421.022 174.607 417.268Q174.127 409.605 173.235 403.652Q172.295 397.384 170.772 392.148Q169.228 386.843 166.91 381.992Q164.681 377.327 161.468 372.532Q159.284 369.272 156.66 366.039Q154.005 362.767 150.658 359.225Q147.352 355.726 143.076 351.652Q138.938 347.708 133.495 342.849Q123.319 333.762 116.106 327.129Q113.783 324.993 112.163 323.472Q115.389 320.242 124.957 310.779Q131.746 304.064 135.44 300.372Q139.696 296.118 142.379 293.348Q145.104 290.534 147.223 288.203Q149.111 286.125 151.346 283.511Q154.908 279.346 157.669 275.596Q160.602 271.612 162.854 267.797Q165.196 263.83 166.939 259.815Q168.71 255.734 169.948 251.407Q171.179 247.107 171.941 242.361Q172.684 237.732 173.019 232.443Q173.341 227.361 173.304 221.369Q173.269 215.707 172.91 208.81L172.452 200.298L172.108 194.112Q171.75 187.777 171.429 179.098Q171.354 177.088 171.304 175.49Q190.008 175.607 196.729 175.636Q206.374 175.677 211.139 175.639Q215.946 175.601 219.187 175.456Q221.387 175.357 225.694 175.051Q228.651 174.84 230.457 174.684Q232.548 174.502 234.194 174.301Q235.871 174.096 237.624 173.806Q239.179 173.548 241.406 173.118Q245.368 172.354 248.851 171.361Q252.523 170.313 255.891 168.947Q262.769 166.157 269.329 161.594Q275.753 157.125 283.029 150.144Q289.79 143.657 298.752 133.58Q306.491 124.878 313.625 117.118Q315.998 114.537 317.683 112.741Q318.472 113.518 319.442 114.483Q324.61 119.627 335.713 130.945Q344.346 139.744 350.814 145.769Q357.618 152.106 363.168 156.441Q368.823 160.857 374.007 163.843Q379.06 166.754 384.41 168.732Q389.162 170.489 394.138 171.601Q399.184 172.729 404.879 173.287Q410.493 173.838 417.2 173.88Q423.679 173.92 431.758 173.488Q447.432 172.651 453.435 172.357Q458.887 172.091 463.439 171.933Q464.614 171.893 465.61 171.864Q465.62 174.177 465.601 178.292Z">
    </path>
    <path d="M364.914 232.754C360.263 221.302 360.056 220.81 359.824 220.824C359.706 220.824 358.266 221.456 356.624 222.204C353.917 223.437 351.931 224.371 342.244 229.004C332.799 233.521 326.681 235.383 320.444 235.624C313.544 235.89 306.494 233.938 291.794 227.684C282.112 223.564 277.694 221.744 277.594 221.844C277.38 222.058 274.444 230.081 271.884 237.454C266.225 253.754 262.259 259.938 253.944 265.424C251.603 266.968 250.607 267.527 247.314 269.174C242.951 271.356 242.784 271.43 222.254 279.784C221.087 280.258 220.115 280.666 220.094 280.684C220.027 280.739 223.229 287.725 225.074 291.554C226.058 293.595 227.49 296.579 228.254 298.184C235.848 314.118 236.734 321.853 232.464 334.964C231.148 339.007 230.194 341.408 225.564 352.414C221.357 362.415 221.116 363.001 221.224 363.104C221.468 363.337 228.547 365.926 237.124 368.924C246.098 372.059 251.11 374.301 255.164 377.004C261.072 380.94 264.631 385.383 268.934 394.174C270.883 398.154 271.33 399.193 277.124 413.404C280.174 420.881 280.003 420.494 280.194 420.494C280.52 420.494 288.266 416.918 295.044 413.634C306.912 407.885 312.803 405.958 319.434 405.684C325.647 405.429 332.057 407.008 343.214 411.534C345.084 412.293 347.125 413.136 347.744 413.404C348.965 413.93 352.185 415.279 358.414 417.893C360.598 418.808 362.419 419.518 362.464 419.464C362.675 419.214 365.792 410.76 367.704 405.244C370.351 397.607 371.874 393.747 373.664 390.194C375.848 385.857 377.689 383.243 380.554 380.384C385.443 375.506 390.965 372.448 405.674 366.474C416.91 361.91 419.874 360.659 419.874 360.494C419.874 360.264 416.852 353.644 414.764 349.294C413.836 347.362 412.471 344.501 411.724 342.934C404.079 326.853 403.29 319.225 407.864 305.604C409.3 301.327 410.276 298.908 416.814 283.344C417.913 280.726 418.826 278.5 418.844 278.394C418.868 278.257 418.33 277.988 417.024 277.484C414.044 276.333 407.772 274.054 403.854 272.704C393.088 268.993 387.698 266.501 383.214 263.144C377.367 258.765 373.438 252.972 368.494 241.434C367.964 240.194 366.351 236.29 364.914 232.754ZM331.524 205.154L318.974 217.704L306.734 205.454L294.494 193.214L293.644 193.574C292.521 194.046 288.852 195.882 287.354 196.724C282.887 199.235 278.058 202.822 274.334 206.394L273.124 207.554L271.614 207.554C264.303 207.554 254.182 209.728 247.344 212.764L246.454 213.164L246.454 230.914L246.454 248.654L229.134 248.694L211.814 248.724L211.294 250.054C208.695 256.727 206.944 265.642 206.944 272.244L206.934 273.754L205.834 274.894C200.628 280.276 195.707 287.73 192.824 294.604C192.488 295.406 192.159 296.178 192.094 296.324C191.993 296.554 193.637 298.246 204.524 309.144L217.064 321.704L204.844 333.964L192.624 346.234L193.214 347.564C196.241 354.39 200.665 361.027 205.644 366.224L206.934 367.574L206.944 369.074C206.944 370.94 207.244 374.569 207.604 377.034C208.364 382.236 209.761 387.422 211.694 392.254L212.464 394.174L230.254 394.204L248.044 394.244L248.074 411.554L248.104 428.864L249.634 429.464C251.422 430.164 254.278 431.061 256.714 431.694C261.429 432.919 267.453 433.754 271.614 433.754L273.134 433.754L274.214 434.784C279.974 440.306 286.908 444.874 294.304 448.014L295.974 448.724L308.524 436.174L321.084 423.614L323.974 426.464C325.562 428.027 331.073 433.533 336.214 438.704L345.554 448.104L346.954 447.484C353.851 444.414 360.035 440.273 365.684 434.954L366.964 433.754L368.464 433.754C375.324 433.754 384.256 431.926 391.434 429.064L393.554 428.224L393.584 410.434L393.624 392.654L410.944 392.614L428.254 392.583L428.644 391.583C430.466 386.902 431.82 381.7 432.534 376.583C432.844 374.368 433.134 370.78 433.134 369.074L433.134 367.583L434.444 366.194C439.803 360.557 444.143 353.892 447.434 346.244L448.094 344.724L435.554 332.164L423.004 319.614L426.604 315.924C428.582 313.895 434.078 308.366 438.814 303.634L447.424 295.023L446.964 293.954C446.712 293.364 446.067 292.013 445.534 290.954C442.559 285.045 438.806 279.702 434.294 274.954L433.134 273.734L433.134 272.234C433.134 270.37 432.824 266.733 432.464 264.273C431.694 258.997 430.334 253.948 428.374 249.054L427.604 247.134L409.824 247.104L392.034 247.064L391.994 229.754L391.964 212.434L390.634 211.914C383.994 209.319 375.023 207.554 368.454 207.554L366.934 207.554L365.794 206.454C362.417 203.187 358.38 200.124 353.864 197.394C352.224 196.402 347.2 193.883 345.344 193.124L344.074 192.604L331.524 205.154Z"
          fill-rule="evenodd" fill="url(#linear_fill_14_561)">
    </path>
    <defs>
        <linearGradient id="linear_fill_14_561" x1="312.0269775390625" y1="242.2041015625" x2="312.0269775390625"
                        y2="497.513427734375" gradientUnits="userSpaceOnUse">
            <stop offset="0" stop-color="#1E77F2"/>
            <stop offset="1" stop-color="#1CC4FA"/>
        </linearGradient>
    </defs>
</svg>
