<svg xmlns="http://www.w3.org/2000/svg" width="567.27783203125"
     height="565.494873046875" viewBox="0 0 567.27783203125 565.494873046875" fill="none">
    <path fill-rule="evenodd" fill="rgba(29, 141, 244, 1)"
          d="M397.43 189.193L397.43 189.19Q397.525 175.515 397.499 172.937Q397.48 171.022 397.393 170.275Q397.297 169.452 397.013 168.827Q396.686 168.106 396.113 167.578Q395.529 167.04 394.775 166.779L394.774 166.779Q394.25 166.599 393.625 166.563Q393.418 166.551 393.12 166.548Q392.661 166.543 391.887 166.556Q390.513 166.58 388.338 166.654Q384.943 166.772 380.908 166.968Q376.48 167.183 365.001 167.795Q359.301 168.098 354.773 168.07Q350.197 168.042 346.418 167.672Q342.692 167.308 339.432 166.582Q336.268 165.877 333.248 164.764Q329.91 163.534 326.744 161.716Q323.393 159.792 319.656 156.883Q315.842 153.914 311.091 149.504Q306.474 145.217 300.267 138.911Q292.105 130.619 288.288 126.833Q286.3 124.861 285.278 123.898Q284.715 123.369 284.381 123.085Q284.116 122.86 283.897 122.708Q283.617 122.513 283.328 122.375Q282.947 122.193 282.54 122.1Q281.395 121.839 280.311 122.286Q279.678 122.548 279.072 123.1Q278.883 123.271 278.609 123.543Q278.151 123.998 277.375 124.812Q275.897 126.362 273.469 128.994Q268.203 134.703 262.495 141.1Q256.124 148.239 251.381 152.775Q246.468 157.473 242.235 160.407Q238.101 163.273 233.822 165.004Q229.744 166.653 224.579 167.645Q221.681 168.202 219.795 168.433Q217.891 168.667 213.944 168.947Q210.901 169.163 209.372 169.231Q207.14 169.33 203.749 169.355Q200.32 169.381 193.284 169.35Q188.54 169.33 174.368 169.241Q173.052 169.233 171.936 169.237Q171.452 169.239 171.155 169.243Q170.994 169.245 170.893 169.248Q170.316 169.263 169.83 169.412Q168.902 169.699 168.239 170.4Q167.904 170.754 167.673 171.183Q167.475 171.55 167.363 171.954Q167.29 172.22 167.255 172.502Q167.233 172.683 167.224 172.897Q167.215 173.102 167.215 173.426Q167.216 173.941 167.238 174.872Q167.279 176.625 167.384 179.465Q167.621 185.878 167.887 190.568L168.141 195.077L168.479 201.278Q168.987 210.997 168.562 217.672Q168.121 224.6 166.58 229.966Q165.804 232.664 164.698 235.204Q163.603 237.719 162.118 240.225Q160.658 242.691 158.73 245.3Q156.866 247.823 154.431 250.661Q152.866 252.485 151.558 253.919Q150.086 255.534 148.172 257.503Q144.876 260.894 135.525 270.112Q127.056 278.462 125.289 280.249Q124.099 281.453 123.673 281.952Q121.905 284.025 122.89 286.217Q123.133 286.766 123.628 287.32Q123.797 287.508 124.057 287.772Q124.484 288.204 125.244 288.927Q126.684 290.297 129.233 292.634Q134.552 297.507 142.049 304.18Q149.731 311.016 154.174 315.702Q156.436 318.088 158.206 320.262Q159.916 322.362 161.329 324.464Q163.387 327.525 164.791 330.454Q166.231 333.457 167.195 336.758Q168.172 340.107 168.787 344.197Q169.394 348.23 169.725 353.509Q169.892 356.165 169.957 357.769Q170.041 359.837 170.068 362.594Q170.113 367.067 170.021 383.774L170.011 385.435Q169.971 392.637 169.991 393.879Q170.01 395.004 170.106 395.535Q170.294 396.567 170.92 397.335Q171.659 398.241 172.802 398.573Q172.635 398.525 172.464 398.454Q174.174 399.16 198.018 397.768Q205.317 397.343 210.549 397.285Q215.943 397.226 220.06 397.545Q224.1 397.857 227.512 398.582Q230.759 399.271 234.008 400.458Q236.997 401.551 239.862 403.122Q242.847 404.759 246.051 407.106Q249.316 409.497 253.138 412.866Q256.904 416.185 261.608 420.805L262.3 421.487L266.671 425.838L278.575 437.84Q280.46 439.734 281.833 441.041Q282.522 441.696 282.938 442.065Q283.215 442.309 283.416 442.464Q283.641 442.638 283.86 442.768Q284.181 442.96 284.525 443.084Q284.963 443.24 285.424 443.284Q286.517 443.389 287.489 442.877Q287.95 442.641 288.461 442.165Q288.642 441.996 288.915 441.722Q289.382 441.254 290.17 440.429Q291.677 438.851 294.036 436.309Q299.338 430.594 303.591 425.822Q309.466 419.229 313.024 415.567Q316.569 411.917 319.738 409.195Q323.566 405.904 326.685 403.932Q328.276 402.926 329.964 402.067Q331.617 401.226 333.568 400.423Q336.922 399.042 340.267 398.205Q343.839 397.31 348.265 396.809Q352.786 396.297 359.054 396.099Q365.054 395.909 373.939 395.97Q387.294 396.062 391.895 396.036Q394.456 396.021 395.625 395.97Q396.314 395.94 396.726 395.888Q399.089 395.588 399.923 393.581Q400.183 392.954 400.218 392.161Q400.227 391.945 400.228 391.619Q400.23 391.083 400.212 390.155Q400.176 388.406 400.076 385.589Q399.855 379.334 399.562 374.015L399.322 369.586L399.014 363.747Q398.51 353.922 398.959 347.251Q399.426 340.305 401.034 334.927Q401.844 332.218 403.003 329.656Q404.151 327.116 405.712 324.565Q407.247 322.056 409.281 319.372Q411.242 316.786 413.819 313.838Q415.529 311.881 416.948 310.351Q418.616 308.553 421.006 306.12Q425.062 301.991 438.222 289.004Q440.424 286.831 442.082 285.165Q442.855 284.389 443.309 283.923Q443.552 283.674 443.694 283.524Q444.057 283.138 444.26 282.82Q445.808 280.394 443.564 277.806Q442.985 277.139 441.748 275.964Q439.166 273.513 434.551 269.307Q429.911 265.079 426.497 262.067Q421.788 257.912 418.391 254.683Q414.914 251.379 412.366 248.623Q409.855 245.906 407.958 243.41Q406.142 241.02 404.653 238.519Q402.736 235.297 401.44 231.923Q400.098 228.428 399.248 224.323Q398.382 220.139 397.933 214.869Q397.49 209.667 397.407 202.832L397.418 191.259L397.43 189.193ZM393.568 170.236C393.89 170.347 393.89 171.129 393.765 189.174C393.728 194.748 393.72 200.914 393.742 202.883C393.965 221.208 396.043 231.219 401.501 240.392C405.688 247.426 411.578 253.791 424.068 264.811C428.614 268.821 435.831 275.4 439.22 278.617C440.704 280.027 441.276 280.69 441.168 280.86C441.083 280.994 438.603 283.487 435.648 286.404C418.075 303.745 415.399 306.469 411.059 311.434C397.233 327.252 394.022 337.984 395.354 363.945C395.486 366.476 395.729 371.098 395.902 374.222C396.29 381.256 396.666 391.874 396.538 392.183C396.445 392.407 391.734 392.433 373.971 392.311C350.715 392.152 341.526 393.192 332.176 397.04C326.695 399.297 322.736 401.793 317.35 406.423C312.935 410.216 308.717 414.57 300.854 423.392C295.174 429.766 286.209 439.423 285.784 439.641C285.693 439.689 283.624 437.718 281.182 435.264C274.218 428.257 270.619 424.638 269.261 423.245C268.574 422.538 266.285 420.264 264.181 418.195C251.618 405.857 243.824 400.149 235.273 397.021C226.145 393.687 217.093 392.991 197.81 394.115C186.796 394.758 174.31 395.254 173.869 395.072C173.844 395.062 173.821 395.058 173.801 395.049C173.613 394.967 173.627 394.427 173.686 383.788C173.81 361.383 173.789 359.732 173.383 353.274C172.488 339.013 170.163 331.032 164.374 322.421C160.401 316.511 154.877 310.69 144.491 301.447C134.563 292.611 126.434 285.165 126.234 284.714C126.145 284.516 126.799 283.853 138.098 272.714C150.534 260.455 153.164 257.758 157.213 253.039C170.34 237.74 173.483 226.808 172.139 201.072C172.004 198.481 171.734 193.659 171.546 190.355C171.195 184.161 170.78 172.947 170.902 172.909C170.94 172.898 172.494 172.889 174.339 172.9C206.807 173.103 207.069 173.103 214.197 172.597C219.577 172.215 221.232 172.014 225.266 171.238C239.595 168.485 248.432 162.357 265.23 143.531C272.827 135.017 281.296 125.837 281.707 125.667C281.898 125.588 286.856 130.511 297.65 141.478C314.039 158.127 322.486 164.701 331.974 168.197C340.55 171.357 349.874 172.265 365.19 171.448C380.896 170.612 384.102 170.462 388.458 170.311C391.098 170.221 393.408 170.17 393.568 170.236Z">
    </path>
    <path d="M316.417 218.342C313.011 209.983 312.859 209.623 312.689 209.633C312.603 209.633 311.548 210.095 310.345 210.641C308.362 211.541 306.908 212.223 299.813 215.605C292.895 218.902 288.414 220.261 283.846 220.437C278.792 220.632 273.629 219.207 262.862 214.641C255.77 211.634 252.535 210.305 252.462 210.378C252.304 210.535 250.154 216.391 248.279 221.773C244.134 233.673 241.23 238.187 235.14 242.191C233.425 243.319 232.695 243.726 230.284 244.929C227.088 246.522 226.966 246.576 211.929 252.674C211.074 253.02 210.362 253.318 210.347 253.331C210.298 253.372 212.643 258.471 213.994 261.266C214.715 262.756 215.764 264.935 216.324 266.106C221.885 277.737 222.534 283.384 219.407 292.955C218.443 295.907 217.744 297.659 214.353 305.693C211.272 312.994 211.095 313.422 211.175 313.497C211.353 313.667 216.538 315.557 222.82 317.745C229.393 320.034 233.063 321.671 236.033 323.644C240.361 326.517 242.967 329.761 246.119 336.178C247.546 339.083 247.873 339.842 252.117 350.215C254.351 355.674 254.226 355.391 254.366 355.391C254.605 355.391 260.278 352.781 265.242 350.383C273.934 346.187 278.25 344.78 283.106 344.58C287.657 344.394 292.352 345.547 300.524 348.85C301.893 349.405 303.388 350.02 303.841 350.215C304.736 350.6 307.094 351.584 311.656 353.493C313.256 354.161 314.59 354.679 314.623 354.639C314.777 354.457 317.06 348.286 318.461 344.259C320.399 338.684 321.515 335.866 322.826 333.272C324.425 330.106 325.774 328.199 327.872 326.111C331.453 322.55 335.498 320.318 346.271 315.957C354.5 312.625 356.672 311.713 356.672 311.592C356.672 311.424 354.458 306.591 352.929 303.416C352.249 302.005 351.249 299.917 350.702 298.773C345.103 287.034 344.525 281.466 347.875 271.522C348.927 268.401 349.642 266.635 354.43 255.273C355.235 253.362 355.904 251.737 355.917 251.659C355.935 251.56 355.541 251.363 354.584 250.995C352.401 250.155 347.808 248.491 344.938 247.505C337.053 244.797 333.105 242.978 329.821 240.527C325.538 237.33 322.661 233.101 319.039 224.679C318.651 223.774 317.47 220.924 316.417 218.342ZM257.083 233.65L256.666 234.825C255.564 237.9 254.035 241.287 252.813 243.366C250.628 247.084 248.171 249.857 244.903 252.294C242.842 253.831 239.43 255.738 236.81 256.82L235.66 257.295L246.368 257.324C252.254 257.337 257.08 257.327 257.098 257.309C257.116 257.291 257.119 251.96 257.105 245.461L257.083 233.65ZM238.553 274.814C231.547 267.849 230.08 266.427 230.284 266.828C230.42 267.097 230.892 268.131 231.338 269.128C234.761 276.771 235.762 282.707 234.693 289.042C234.287 291.444 233.297 294.79 232.232 297.357C231.99 297.94 231.808 298.43 231.822 298.444C231.836 298.458 235.272 295.057 239.461 290.882L247.078 283.29L238.553 274.814ZM299.762 229.183C299.736 229.183 299.128 229.479 298.407 229.825C293.476 232.193 288.856 233.625 284.71 234.074C282.91 234.269 279.402 234.221 277.891 233.979C274.778 233.48 271.286 232.48 268.392 231.263C267.948 231.076 267.572 230.934 267.557 230.949C267.542 230.964 270.956 234.396 275.145 238.57L282.762 246.162L291.288 237.672C295.976 233.003 299.789 229.183 299.762 229.183ZM308.8 234.745L308.8 245.513L308.793 256.28L320.805 256.28C327.409 256.28 332.795 256.258 332.772 256.236C332.75 256.214 332.096 255.971 331.322 255.696C328.012 254.519 324.523 252.92 322.218 251.52C316.458 248.022 312.606 243.41 309.466 236.264L308.8 234.745ZM258.299 308.737L246.287 308.737C239.682 308.737 234.305 308.759 234.334 308.788C234.363 308.816 235.043 309.078 235.85 309.365C242.403 311.699 246.962 314.348 250.491 317.877C253.482 320.866 255.642 324.219 257.772 329.162L258.292 330.374L258.299 319.556L258.299 308.737ZM335.277 266.536C335.265 266.536 331.83 269.957 327.638 274.136L320.013 281.735L328.458 290.152C333.102 294.782 336.916 298.556 336.933 298.539C336.949 298.523 336.634 297.814 336.237 296.962C334.049 292.275 332.847 288.589 332.245 284.735C332.029 283.349 331.946 279.593 332.099 278.099C332.445 274.689 333.295 271.559 335.102 267.047C335.213 266.768 335.29 266.536 335.277 266.536ZM284.322 318.899C284.295 318.899 280.448 322.714 275.775 327.374L267.279 335.849L268.546 335.251C272.992 333.161 276.965 331.825 280.587 331.199C283.903 330.625 287.603 330.691 291.119 331.396C293.239 331.82 296.452 332.829 298.78 333.798C299.175 333.962 299.525 334.097 299.557 334.097C299.59 334.097 296.19 330.677 291.998 326.498C287.806 322.319 284.349 318.899 284.322 318.899ZM320.709 307.671L309.957 307.671L309.965 319.556L309.972 331.433L310.389 330.265C312.115 325.449 314.034 321.633 316.198 318.716C319.512 314.247 323.908 310.934 329.967 308.343C330.741 308.013 331.395 307.726 331.417 307.708C331.44 307.689 326.619 307.671 320.709 307.671ZM291.961 198.194L282.769 207.356L273.805 198.413L264.84 189.478L264.217 189.741C263.394 190.086 260.707 191.426 259.61 192.041C256.338 193.874 252.801 196.493 250.074 199.1L249.188 199.946L248.082 199.946C242.726 199.946 235.314 201.534 230.306 203.75L229.654 204.042L229.654 216.999L229.654 229.949L216.968 229.978L204.282 230L203.902 230.971C201.998 235.843 200.715 242.35 200.715 247.17L200.708 248.272L199.902 249.104C196.089 253.034 192.485 258.475 190.374 263.492C190.127 264.078 189.886 264.641 189.839 264.748C189.764 264.916 190.969 266.151 198.943 274.106L208.128 283.275L199.177 292.225L190.227 301.182L190.659 302.153C192.876 307.136 196.117 311.981 199.763 315.774L200.708 316.76L200.715 317.855C200.715 319.218 200.935 321.866 201.199 323.666C201.756 327.464 202.778 331.249 204.194 334.776L204.758 336.178L217.788 336.2L230.818 336.229L230.84 348.865L230.862 361.501L231.983 361.939C233.293 362.45 235.384 363.105 237.168 363.567C240.622 364.461 245.034 365.071 248.082 365.071L249.195 365.071L249.986 365.823C254.204 369.854 259.284 373.189 264.7 375.481L265.924 375.999L275.116 366.837L284.315 357.669L286.432 359.749C287.595 360.89 291.631 364.91 295.397 368.684L302.237 375.546L303.263 375.094C308.315 372.853 312.843 369.83 316.981 365.947L317.919 365.071L319.017 365.071C324.042 365.071 330.584 363.737 335.841 361.647L337.394 361.034L337.416 348.047L337.445 335.068L350.131 335.039L362.809 335.017L363.095 334.287C364.429 330.869 365.421 327.072 365.944 323.337C366.171 321.72 366.384 319.101 366.384 317.855L366.384 316.767L367.343 315.753C371.268 311.638 374.447 306.773 376.857 301.189L377.341 300.08L368.156 290.911L358.964 281.749L361.601 279.056C363.05 277.575 367.075 273.539 370.544 270.084L376.85 263.799L376.513 263.018C376.329 262.588 375.856 261.601 375.466 260.828C373.286 256.515 370.538 252.614 367.233 249.148L366.384 248.257L366.384 247.162C366.384 245.802 366.156 243.147 365.893 241.352C365.329 237.5 364.332 233.814 362.897 230.241L362.333 228.839L349.311 228.818L336.281 228.788L336.251 216.152L336.229 203.509L335.255 203.129C330.392 201.235 323.821 199.946 319.01 199.946L317.897 199.946L317.062 199.143C314.588 196.759 311.631 194.523 308.324 192.53C307.123 191.806 303.443 189.967 302.084 189.413L301.153 189.033L291.961 198.194Z"
          fill-rule="evenodd" fill="url(#linear_fill_14_558)">
    </path>
    <path fill-rule="evenodd" fill="rgba(29, 141, 244, 1)"
          d="M404.43 97.7116L376.301 109.309L376.301 109.309L348.974 120.602L337.938 94.0225L326.589 66.6877L324.669 66.6998Q323.093 66.7088 318.997 67.0002Q314.883 67.2928 312.714 67.5522Q306.21 68.3304 299.139 70.1001Q292.066 71.8703 285.924 74.2571L283.472 75.2236L281.283 74.32Q277.018 72.5594 271.707 71.0789Q266.543 69.6393 260.937 68.6154Q255.333 67.5918 249.937 67.1024Q244.39 66.5993 239.67 66.7176L237.695 66.7724L226.051 94.7907L214.721 122.023L188.03 111.078L160.561 99.7887L158.645 101.784Q155.512 105.043 152.355 109.03Q149.266 112.931 146.432 117.178Q143.594 121.432 141.285 125.624Q138.917 129.921 137.319 133.766L136.415 135.94L134.131 136.919Q129.773 138.804 125.251 141.314Q120.803 143.784 116.464 146.71Q112.128 149.635 108.181 152.828Q104.171 156.071 100.813 159.388L98.5545 161.597Q98.305 161.835 98.3924 162.342Q98.4455 162.651 98.6374 163.235Q99.0184 164.396 100.156 167.258Q102.088 172.116 109.595 190.207L120.898 217.472L94.2649 228.512L66.8271 239.904L66.9058 242.706Q67.1402 252.207 69.053 261.861Q70.9652 271.51 74.3036 280.054L75.3881 282.812L74.4926 284.967Q73.5764 287.172 72.3478 290.999Q71.1215 294.819 70.3408 297.897Q68.694 304.389 67.8114 311.09Q66.928 317.795 66.8483 324.419L66.8101 328.248L94.9731 339.938L122.36 351.319L111.363 377.9L100.039 405.268L102.297 407.423Q104.063 409.116 106.748 411.361Q109.417 413.591 111.989 415.527Q116.96 419.27 123.075 422.841Q129.203 426.42 134.12 428.45L136.291 429.346L137.244 431.471Q141.343 440.775 147.192 449.375Q153.047 457.984 160.237 465.277L162.626 467.695L190.748 456.091L218.105 444.795L220.6 450.66L230.668 474.868L231.83 477.684L240.499 498.722L243.441 498.646Q253.073 498.397 262.446 496.532Q271.8 494.67 281.075 491.164L283.668 490.189L285.839 491.086Q289.856 492.744 294.682 494.129Q299.411 495.486 304.566 496.48Q309.719 497.474 314.89 498.028Q320.162 498.592 325.052 498.657L329.254 498.716L340.985 470.643L352.394 443.367L379.086 454.312L406.544 465.597L408.039 464.042Q412.49 459.41 416.538 454.069Q420.606 448.702 423.942 443.046Q425.412 440.557 427.175 437.131Q428.971 433.643 429.799 431.65L430.692 429.502L433.447 428.253Q451.631 420.207 466.886 405.408L469.155 403.229L457.527 375.198L446.197 347.93L453.775 344.691L475.051 335.81L480.876 333.404L500.274 325.396L500.233 323.087Q500.224 322.265 500.138 320.611Q500.052 318.956 499.941 317.454Q498.692 300.615 492.69 285.062L491.744 282.6L492.64 280.443Q493.546 278.264 494.775 274.404Q495.983 270.608 496.771 267.504Q500.093 254.416 500.253 240.978L500.296 237.138L472.149 225.467L444.761 214.087L455.738 187.496L467.066 160.118L465.07 158.209Q461.822 155.099 457.813 151.947Q453.899 148.869 449.623 146.036Q445.346 143.201 441.135 140.895Q436.819 138.531 432.98 136.946L430.802 136.047L429.811 133.773Q427.425 128.292 424.176 122.752Q420.94 117.236 416.939 111.816Q415.477 109.836 411.813 105.613Q408.136 101.375 406.318 99.5786L404.43 97.7116ZM430.424 136.432L429.352 133.973C426.181 126.688 421.84 119.297 416.536 112.113C414.61 109.504 408.381 102.32 405.965 99.934L404.313 98.2999L376.492 109.771L348.703 121.255L337.476 94.2145L326.255 67.1894L324.671 67.1994C322.604 67.2112 315.665 67.7024 312.773 68.0482C304.145 69.0806 294.256 71.555 286.105 74.7226L283.466 75.7624L281.091 74.7817C269.636 70.0528 252.363 66.8993 239.681 67.2171L238.033 67.2628L226.513 94.9815L214.991 122.674L187.839 111.54L160.686 100.38L159.006 102.129C150.603 110.869 142.065 123.648 137.781 133.957L136.799 136.319L134.328 137.378C122.678 142.416 110.142 150.875 101.164 159.743C100.117 160.778 99.1 161.768 98.9044 161.954C98.5959 162.247 100.074 165.958 110.058 190.015L121.36 217.28L121.551 217.742L121.089 217.933L94.4561 228.974L67.337 240.233L67.4061 242.691C67.717 255.309 70.3415 268.538 74.7699 279.872L75.9277 282.817L74.9548 285.158C73.7433 288.073 71.8612 293.937 70.8259 298.019C68.6405 306.634 67.4546 315.629 67.3487 324.424L67.3139 327.916L95.1658 339.477L123.013 351.049L111.825 378.09L100.633 405.143L102.643 407.062C104.99 409.312 108.884 412.565 112.291 415.128C118.883 420.09 127.792 425.297 134.312 427.989L136.666 428.961L137.701 431.266C143.141 443.614 151.044 455.24 160.594 464.926L162.747 467.105L190.557 455.63L218.372 444.144L221.061 450.464C222.535 453.932 227.593 466.094 232.293 477.493L240.831 498.214L243.429 498.146C256.226 497.815 268.596 495.349 280.899 490.697L283.677 489.652L286.031 490.624C296.779 495.061 311.956 497.984 325.059 498.157L328.923 498.212L340.523 470.451L352.125 442.716L379.276 453.85L406.419 465.006L407.678 463.697C413.57 457.565 419.071 450.32 423.511 442.793C425.435 439.534 428.229 434.124 429.337 431.46L430.305 429.129L433.24 427.798C445.294 422.464 456.419 414.865 466.538 405.05L468.562 403.106L457.064 375.39L445.545 347.666L453.579 344.232C457.994 342.344 470.195 337.268 480.685 332.942L499.767 325.065L499.733 323.097C499.72 322.014 499.59 319.49 499.442 317.491C498.615 306.341 496.21 295.575 492.223 285.242L491.205 282.593L492.178 280.252C493.387 277.343 495.253 271.455 496.286 267.382C498.503 258.645 499.646 249.882 499.752 240.973L499.791 237.47L471.956 225.928L444.109 214.357L455.276 187.306L466.473 160.243L464.724 158.57C456.005 150.224 443.079 141.656 432.789 137.408L430.424 136.432Z">
    </path>
    <path fill-rule="evenodd" fill="rgba(29, 141, 244, 1)"
          d="M398.8 105.906L371.69 117.084L371.689 117.084L346.147 127.64L335.837 102.808L324.893 76.4507L322.713 76.4644Q321.195 76.473 317.277 76.7518Q313.346 77.0314 311.268 77.2799Q305.042 78.0249 298.274 79.7185Q291.506 81.4124 285.626 83.6975L283.485 84.5412L281.596 83.7614Q277.506 82.0726 272.417 80.6541Q267.476 79.2768 262.114 78.2973Q256.753 77.3182 251.59 76.85Q246.277 76.3681 241.751 76.4815L239.529 76.5432L228.309 103.541L217.719 128.994L192.783 118.769L166.292 107.881L164.219 110.039Q161.218 113.161 158.195 116.978Q155.241 120.71 152.53 124.773Q149.815 128.842 147.604 132.854Q145.335 136.972 143.802 140.66L143.023 142.534L141.045 143.382Q136.869 145.188 132.539 147.592Q128.282 149.956 124.132 152.755Q119.983 155.553 116.206 158.608Q112.368 161.713 109.151 164.891L107.002 166.993Q106.567 167.407 106.697 168.165Q106.754 168.497 106.949 169.09Q107.317 170.211 108.406 172.951Q110.248 177.584 117.399 194.815L127.963 220.298L103.082 230.612L76.6175 241.6L76.7026 244.629Q76.9267 253.718 78.7573 262.958Q80.5868 272.191 83.7837 280.373L84.7396 282.805L83.9679 284.662Q83.0871 286.781 81.9102 290.447Q80.7374 294.101 79.9898 297.048Q78.4138 303.261 77.5692 309.673Q76.724 316.09 76.6476 322.429L76.6077 326.43L103.755 337.698L129.357 348.337L119.082 373.17L108.161 399.565L110.569 401.865Q112.265 403.49 114.835 405.638Q117.389 407.772 119.847 409.622Q124.605 413.204 130.456 416.622Q136.321 420.048 141.039 421.996L142.914 422.77L143.737 424.604Q147.657 433.503 153.256 441.735Q158.856 449.971 165.739 456.952L168.263 459.506L195.371 448.321L220.946 437.76L223.12 442.869L232.706 465.92L233.812 468.602L242.205 488.97L245.368 488.888Q254.589 488.649 263.557 486.865Q272.512 485.083 281.383 481.729L283.657 480.873L285.534 481.648Q289.387 483.239 294.01 484.566Q298.537 485.865 303.469 486.816Q308.397 487.767 313.346 488.297Q318.387 488.837 323.072 488.899L327.429 488.96L338.738 461.896L349.403 436.4L374.341 446.627L400.821 457.51L402.493 455.771Q406.754 451.337 410.627 446.226Q414.521 441.089 417.713 435.678Q419.118 433.297 420.806 430.018Q422.526 426.679 423.323 424.76L424.094 422.905L426.529 421.801Q443.929 414.1 458.525 399.942L460.942 397.62L449.731 370.595L439.139 345.103L445.879 342.222L466.138 333.766L471.684 331.475L490.488 323.712L490.443 321.156Q490.434 320.368 490.352 318.78Q490.27 317.199 490.164 315.761Q488.969 299.648 483.224 284.763L482.399 282.613L483.172 280.752Q484.042 278.658 485.22 274.959Q486.376 271.331 487.13 268.358Q490.309 255.829 490.462 242.972L490.507 238.961L463.374 227.711L437.773 217.073L448.028 192.231L458.952 165.827L456.794 163.761Q453.682 160.782 449.844 157.764Q446.099 154.82 442.009 152.11Q437.917 149.398 433.888 147.191Q429.752 144.925 426.07 143.405L424.191 142.63L423.331 140.657Q418.741 130.111 411.014 119.645Q409.61 117.743 406.106 113.705Q402.591 109.654 400.845 107.929L398.8 105.906ZM423.434 143.399L422.414 141.057C419.394 134.12 415.259 127.08 410.208 120.238C408.374 117.754 402.441 110.912 400.141 108.639L398.567 107.083L372.07 118.008L345.604 128.945L334.912 103.192L324.226 77.454L322.717 77.4635C320.749 77.4748 314.14 77.9426 311.385 78.2719C303.168 79.2552 293.751 81.6117 285.988 84.6285L283.475 85.6188L281.212 84.6848C270.303 80.1811 253.853 77.1777 241.775 77.4804L240.205 77.5239L229.233 103.923L218.26 130.297L192.401 119.693L166.541 109.065L164.941 110.73C156.938 119.053 148.807 131.225 144.727 141.042L143.792 143.292L141.438 144.3C130.343 149.098 118.404 157.155 109.854 165.6C108.856 166.586 107.888 167.528 107.701 167.706C107.408 167.985 108.815 171.519 118.324 194.431L128.887 219.915L129.27 220.837L128.345 221.221L103.465 231.534L77.6372 242.258L77.703 244.599C77.9992 256.615 80.4987 269.215 84.7162 280.009L85.8189 282.814L84.8923 285.043C83.7385 287.819 81.946 293.404 80.96 297.292C78.8787 305.497 77.7492 314.063 77.6483 322.439L77.6152 325.765L104.141 336.776L130.662 347.796L120.007 373.55L109.347 399.314L111.262 401.142C113.497 403.285 117.206 406.383 120.45 408.824C126.729 413.55 135.214 418.509 141.423 421.072L143.665 421.998L144.651 424.194C149.831 435.954 157.358 447.026 166.453 456.251L168.504 458.326L194.99 447.397L221.48 436.458L224.041 442.477C225.445 445.78 230.262 457.363 234.738 468.22L242.869 487.953L245.343 487.889C257.532 487.573 269.312 485.225 281.029 480.794L283.675 479.799L285.917 480.725C296.153 484.951 310.608 487.735 323.087 487.9L326.767 487.951L337.814 461.513L348.864 435.098L374.722 445.702L400.573 456.327L401.771 455.08C407.383 449.24 412.622 442.341 416.85 435.172C418.683 432.068 421.344 426.916 422.399 424.378L423.321 422.159L426.117 420.891C437.596 415.811 448.191 408.574 457.829 399.226L459.756 397.374L448.806 370.978L437.835 344.574L445.486 341.304C449.692 339.506 461.311 334.672 471.302 330.552L489.476 323.049L489.443 321.175C489.431 320.144 489.307 317.74 489.166 315.837C488.378 305.218 486.088 294.964 482.29 285.124L481.321 282.6L482.248 280.371C483.399 277.6 485.176 271.992 486.16 268.114C488.271 259.792 489.36 251.447 489.461 242.962L489.499 239.626L462.989 228.634L436.468 217.613L447.103 191.851L457.766 166.077L456.101 164.483C447.797 156.534 435.487 148.375 425.686 144.329L423.434 143.399Z">
    </path>
    <path fill-rule="evenodd" fill="rgba(29, 141, 244, 1)"
          d="M393.117 114.184L367.037 124.937L367.036 124.937L343.291 134.75L333.712 111.678L323.179 86.3097L320.739 86.325Q319.28 86.3333 315.541 86.5993Q311.796 86.8658 309.81 87.1032Q303.863 87.8148 297.403 89.4314Q290.943 91.0481 285.327 93.2306L283.499 93.951L281.911 93.2955Q277.996 91.6794 273.133 90.3236Q268.417 89.0089 263.3 88.0744Q258.185 87.1402 253.259 86.6934Q248.182 86.233 243.853 86.3414L241.384 86.4099L230.593 112.375L220.748 136.037L197.579 126.536L172.077 116.055L169.849 118.375Q166.98 121.359 164.094 125.004Q161.275 128.565 158.689 132.441Q156.097 136.325 153.987 140.154Q151.818 144.091 150.351 147.621L149.697 149.194L148.025 149.91Q144.033 151.637 139.898 153.932Q135.835 156.188 131.874 158.86Q127.915 161.53 124.31 164.446Q120.644 167.411 117.569 170.448L115.531 172.442Q114.91 173.033 115.084 174.042Q115.145 174.397 115.342 174.998Q115.697 176.079 116.738 178.696Q118.488 183.098 125.28 199.464L135.099 223.153L111.984 232.735L86.5039 243.314L86.5953 246.569Q86.8092 255.245 88.5566 264.064Q90.3033 272.88 93.3565 280.694L94.1834 282.797L93.5359 284.355Q92.6907 286.389 91.5662 289.892Q90.4474 293.378 89.7333 296.192Q88.229 302.123 87.4227 308.244Q86.6158 314.369 86.5429 320.421L86.5014 324.592L112.621 335.434L136.424 345.324L126.878 368.398L116.364 393.809L118.923 396.252Q120.546 397.807 123 399.858Q125.434 401.893 127.781 403.659Q132.325 407.08 137.908 410.341Q143.51 413.614 148.025 415.477L149.603 416.129L150.295 417.671Q154.036 426.164 159.38 434.022Q164.727 441.884 171.297 448.548L173.953 451.236L200.036 440.474L223.816 430.654L225.667 435.005L234.768 456.889L235.818 459.433L243.931 479.123L247.313 479.035Q256.115 478.807 264.678 477.104Q273.224 475.403 281.691 472.202L283.646 471.467L285.227 472.12Q288.914 473.642 293.334 474.91Q297.655 476.15 302.364 477.058Q307.065 477.965 311.787 478.471Q316.601 478.986 321.074 479.046L325.584 479.109L336.466 453.067L346.381 429.363L369.554 438.866L395.045 449.342L396.892 447.421Q400.961 443.187 404.658 438.308Q408.374 433.406 411.422 428.239Q412.764 425.964 414.374 422.837Q416.018 419.646 416.783 417.803L417.432 416.243L419.546 415.285Q436.152 407.935 450.084 394.423L452.648 391.959L441.858 365.951L432.01 342.248L437.908 339.727L457.14 331.699L462.404 329.524L480.607 322.01L480.558 319.208Q480.549 318.451 480.471 316.932Q480.393 315.424 480.292 314.055Q479.15 298.672 473.667 284.463L472.962 282.628L473.612 281.064Q474.447 279.053 475.573 275.518Q476.675 272.056 477.395 269.219Q480.43 257.26 480.576 244.986L480.623 240.806L454.516 229.981L430.713 220.09L440.242 197.008L450.758 171.59L448.438 169.369Q445.463 166.521 441.798 163.64Q438.225 160.83 434.323 158.244Q430.418 155.657 426.572 153.55Q422.618 151.384 419.094 149.93L417.515 149.278L416.787 147.608Q412.404 137.538 405.03 127.549Q403.684 125.726 400.343 121.875Q396.992 118.013 395.318 116.36L393.117 114.184ZM416.38 150.432L415.411 148.208C412.543 141.621 408.617 134.936 403.821 128.44C402.079 126.081 396.446 119.584 394.262 117.426L392.767 115.949L367.608 126.322L342.478 136.707L332.325 112.254L322.178 87.8147L320.746 87.8237C318.876 87.8344 312.601 88.2786 309.986 88.5914C302.183 89.525 293.241 91.7626 285.869 94.6271L283.483 95.5674L281.335 94.6806C270.977 90.4041 255.356 87.5523 243.888 87.8397L242.397 87.8811L231.979 112.948L221.56 137.991L197.006 127.922L172.451 117.83L170.932 119.411C163.332 127.315 155.611 138.872 151.737 148.194L150.849 150.33L148.615 151.288C138.08 155.843 126.743 163.493 118.624 171.513C117.677 172.449 116.757 173.344 116.581 173.512C116.302 173.777 117.638 177.133 126.667 198.889L136.487 222.578L137.061 223.962L135.673 224.537L112.558 234.119L88.0335 244.302L88.096 246.525C88.3772 257.935 90.7506 269.898 94.7552 280.147L95.8023 282.811L94.9224 284.928C93.8269 287.564 92.1249 292.867 91.1886 296.558C89.2124 304.349 88.1399 312.483 88.0441 320.437L88.0126 323.595L113.2 334.05L138.383 344.514L128.265 368.968L118.143 393.432L119.961 395.168C122.084 397.202 125.606 400.144 128.686 402.462C134.647 406.95 142.704 411.658 148.6 414.092L150.729 414.971L151.665 417.056C156.584 428.223 163.732 438.736 172.367 447.495L174.315 449.466L199.464 439.089L224.618 428.702L227.049 434.417C228.382 437.553 232.956 448.551 237.206 458.86L244.927 477.598L247.276 477.537C258.849 477.237 270.036 475.007 281.161 470.8L283.674 469.856L285.803 470.734C295.522 474.747 309.247 477.391 321.097 477.547L324.591 477.596L335.081 452.492L345.572 427.41L370.126 437.479L394.672 447.567L395.81 446.384C401.139 440.838 406.113 434.287 410.128 427.48C411.868 424.533 414.395 419.641 415.397 417.231L416.273 415.124L418.927 413.92C429.827 409.096 439.887 402.225 449.039 393.349L450.869 391.59L440.471 366.526L430.054 341.455L437.319 338.349C441.312 336.642 452.345 332.052 461.832 328.14L479.088 321.016L479.057 319.236C479.046 318.257 478.928 315.975 478.794 314.167C478.046 304.084 475.872 294.348 472.266 285.004L471.345 282.608L472.225 280.491C473.319 277.86 475.006 272.536 475.94 268.853C477.945 260.951 478.979 253.027 479.075 244.97L479.11 241.802L453.938 231.365L428.755 220.901L438.854 196.439L448.979 171.965L447.398 170.452C439.513 162.904 427.824 155.156 418.518 151.315L416.38 150.432Z">
    </path>
    <path fill-rule="evenodd" fill="rgba(29, 141, 244, 1)"
          d="M388.349 121.061L363.087 131.477L363.086 131.477L340.928 140.634L331.995 119.118L321.787 94.5335L319.075 94.5506Q317.664 94.5586 314.074 94.814Q310.482 95.0695 308.571 95.298Q302.855 95.982 296.65 97.5349Q290.444 99.0879 285.046 101.186L283.511 101.791L282.206 101.252Q278.435 99.6952 273.756 98.391Q269.226 97.1282 264.314 96.2309Q259.402 95.3339 254.671 94.9048Q249.789 94.462 245.62 94.5664L242.892 94.6421L232.443 119.785L223.257 141.865L201.647 133.004L176.93 122.845L174.533 125.341Q171.774 128.21 169 131.714Q166.293 135.134 163.809 138.855Q161.321 142.585 159.293 146.264Q157.206 150.052 155.793 153.453L155.257 154.742L153.872 155.336Q150.031 156.997 146.057 159.203Q142.154 161.37 138.35 163.936Q134.548 166.5 131.085 169.301Q127.561 172.151 124.604 175.072L122.659 176.975Q121.852 177.743 122.07 179.005Q122.135 179.384 122.337 179.999Q122.681 181.047 123.681 183.563Q125.356 187.777 131.844 203.41L141.007 225.514L119.451 234.45L94.7499 244.706L94.8482 248.205Q95.0536 256.539 96.7322 265.011Q98.4105 273.481 101.345 280.992L102.052 282.79L101.521 284.067Q100.705 286.031 99.6235 289.4Q98.5493 292.746 97.8629 295.452Q96.4177 301.149 95.6432 307.029Q94.868 312.914 94.798 318.728L94.7545 323.095L120.058 333.598L142.273 342.829L133.37 364.348L123.179 388.979L125.903 391.58Q127.467 393.079 129.826 395.05Q132.163 397.004 134.416 398.699Q138.783 401.987 144.144 405.118Q149.529 408.264 153.878 410.059L155.177 410.595L155.746 411.863Q159.339 420.02 164.472 427.569Q169.608 435.121 175.92 441.523L178.726 444.362L203.994 433.936L226.191 424.77L227.74 428.411L236.431 449.311L237.433 451.74L245.332 470.908L248.952 470.815Q257.409 470.596 265.636 468.959Q273.846 467.326 281.978 464.25L283.635 463.628L284.938 464.166Q288.49 465.632 292.743 466.852Q296.894 468.043 301.417 468.916Q305.931 469.787 310.465 470.272Q315.09 470.768 319.39 470.825L324.082 470.891L334.625 445.659L343.878 423.538L365.491 432.401L390.198 442.555L392.232 440.441Q396.141 436.372 399.693 431.686Q403.263 426.976 406.19 422.013Q407.481 419.826 409.027 416.824Q410.607 413.755 411.347 411.974L411.881 410.69L413.696 409.867Q429.647 402.808 443.028 389.829L445.755 387.21L435.3 362.008L426.108 339.884L431.225 337.697L449.592 330.03L454.618 327.954L472.364 320.628L472.31 317.564Q472.302 316.833 472.227 315.372Q472.151 313.924 472.054 312.61Q470.958 297.832 465.69 284.181L465.098 282.64L465.632 281.355Q466.439 279.412 467.522 276.012Q468.58 272.69 469.272 269.962Q472.187 258.473 472.327 246.681L472.376 242.306L447.085 231.819L424.869 222.588L433.756 201.061L443.949 176.423L441.454 174.034Q438.592 171.295 435.069 168.525Q431.638 165.828 427.892 163.345Q424.142 160.86 420.447 158.836Q416.643 156.752 413.248 155.351L411.951 154.815L411.347 153.43Q407.135 143.752 400.053 134.16Q398.754 132.4 395.548 128.705Q392.332 124.999 390.719 123.405L388.349 121.061ZM410.438 156.354L409.512 154.23C406.773 147.938 403.022 141.553 398.441 135.347C396.777 133.094 391.396 126.888 389.309 124.826L387.882 123.415L363.849 133.324L339.844 143.244L330.145 119.886L320.452 96.5403L319.084 96.5489C317.299 96.5591 311.305 96.9834 308.806 97.2821C301.353 98.174 292.811 100.311 285.769 103.048L283.49 103.946L281.438 103.099C271.543 99.0138 256.622 96.2896 245.667 96.5641L244.243 96.6037L234.292 120.548L224.339 144.47L200.884 134.852L177.428 125.212L175.977 126.723C168.718 134.272 161.342 145.312 157.642 154.216L156.793 156.257L154.659 157.172C144.595 161.524 133.766 168.831 126.011 176.492C125.106 177.386 124.228 178.24 124.059 178.401C123.792 178.655 125.069 181.86 133.693 202.642L142.857 224.748L143.622 226.593L141.772 227.36L120.216 236.296L96.7894 246.022L96.8491 248.146C97.1177 259.045 99.3849 270.473 103.21 280.263L104.21 282.807L103.37 284.83C102.323 287.348 100.698 292.414 99.8033 295.939C97.9155 303.382 96.891 311.152 96.7995 318.749L96.7694 321.766L120.829 331.753L144.885 341.749L135.22 365.108L125.551 388.477L127.288 390.135C129.316 392.078 132.68 394.888 135.622 397.103C141.317 401.389 149.013 405.887 154.645 408.212L156.679 409.052L157.573 411.044C162.271 421.71 169.099 431.753 177.348 440.12L179.208 442.002L203.232 432.09L227.259 422.168L229.582 427.627C230.855 430.623 235.224 441.129 239.284 450.976L246.66 468.875L248.904 468.817C259.959 468.53 270.644 466.4 281.272 462.382L283.672 461.479L285.706 462.319C294.99 466.152 308.1 468.677 319.42 468.826L322.757 468.874L332.778 444.893L342.8 420.934L366.254 430.552L389.702 440.189L390.789 439.058C395.879 433.761 400.63 427.503 404.466 421.001C406.128 418.186 408.542 413.512 409.499 411.211L410.335 409.197L412.87 408.048C423.283 403.44 432.893 396.876 441.634 388.397L443.383 386.717L433.451 362.776L423.5 338.826L430.44 335.86C434.254 334.229 444.793 329.845 453.855 326.107L470.339 319.303L470.309 317.602C470.298 316.667 470.186 314.487 470.058 312.76C469.344 303.129 467.266 293.828 463.822 284.903L462.943 282.614L463.783 280.592C464.828 278.078 466.439 272.992 467.331 269.474C469.247 261.927 470.234 254.357 470.326 246.661L470.36 243.635L446.315 233.665L422.259 223.669L431.905 200.302L441.578 176.924L440.067 175.478C432.535 168.268 421.37 160.867 412.48 157.198L410.438 156.354Z">
    </path>
    <defs>
        <linearGradient id="linear_fill_14_558" x1="277.646728515625" y1="225.240966796875" x2="277.646728515625"
                        y2="411.614990234375" gradientUnits="userSpaceOnUse">
            <stop offset="0" stop-color="#1E77F2"/>
            <stop offset="1" stop-color="#1CC4FA"/>
        </linearGradient>
    </defs>
</svg>
