<svg xmlns="http://www.w3.org/2000/svg" xmlns:xlink="http://www.w3.org/1999/xlink" width="524.6593856811523" height="64.50003051757812" viewBox="0 0 524.6593856811523 64.50003051757812" fill="none">
    <path d="M9.14286 64L9.14286 54.8571L36.5714 54.8571L36.5714 64L9.14286 64ZM0 54.8571L0 0L9.14286 0L9.14286 54.8571L0 54.8571ZM36.5714 54.8571L36.5714 0L45.7143 0L45.7143 54.8571L36.5714 54.8571Z"   fill="url(#linear_fill_2_4)" >
    </path>
    <path d="M89.3187 64L89.3187 27.4286L98.4615 27.4286L98.4615 64L89.3187 64ZM52.7473 64L52.7473 18.2857L89.3187 18.2857L89.3187 27.4286L61.8901 27.4286L61.8901 64L52.7473 64Z"   fill="url(#linear_fill_2_5)" >
    </path>
    <path d="M132.923 64L132.923 54.8571L142.066 54.8571L142.066 64L132.923 64ZM123.78 54.8571L123.78 45.7143L132.923 45.7143L132.923 54.8571L123.78 54.8571ZM123.78 36.5714L123.78 27.4286L132.923 27.4286L132.923 36.5714L123.78 36.5714ZM132.923 27.4286L132.923 18.2857L142.066 18.2857L142.066 27.4286L132.923 27.4286ZM105.495 64L105.495 0L114.637 0L114.637 36.5714L123.78 36.5714L123.78 45.7143L114.637 45.7143L114.637 64L105.495 64Z"   fill="url(#linear_fill_2_6)" >
    </path>
    <path d="M185.67 64L185.67 27.4286L194.813 27.4286L194.813 64L185.67 64ZM149.099 64L149.099 18.2857L185.67 18.2857L185.67 27.4286L158.242 27.4286L158.242 64L149.099 64Z"   fill="url(#linear_fill_2_7)" >
    </path>
    <path d="M210.989 64L210.989 54.8571L238.418 54.8571L238.418 64L210.989 64ZM201.846 54.8571L201.846 27.4286L210.989 27.4286L210.989 54.8571L201.846 54.8571ZM238.418 54.8571L238.418 27.4286L247.56 27.4286L247.56 54.8571L238.418 54.8571ZM210.989 27.4286L210.989 18.2857L238.418 18.2857L238.418 27.4286L210.989 27.4286Z"   fill="url(#linear_fill_2_8)" >
    </path>
    <path d="M254.593 54.8571L254.593 18.2857L263.736 18.2857L263.736 54.8571L254.593 54.8571ZM263.736 64L263.736 54.8571L272.879 54.8571L272.879 36.5714L282.022 36.5714L282.022 54.8571L291.165 54.8571L291.165 18.2857L300.308 18.2857L300.308 64L263.736 64Z"   fill="url(#linear_fill_2_9)" >
    </path>
    <path d="M343.912 64L343.912 27.4286L353.055 27.4286L353.055 64L343.912 64ZM307.341 64L307.341 18.2857L343.912 18.2857L343.912 27.4286L316.484 27.4286L316.484 64L307.341 64Z"   fill="url(#linear_fill_2_10)" >
    </path>
    <path d="M410.022 54.8571L410.022 27.4286L419.165 27.4286L419.165 54.8571L410.022 54.8571ZM410.022 18.2857L410.022 9.14286L419.165 9.14286L419.165 18.2857L410.022 18.2857ZM373.451 64L373.451 0L410.022 0L410.022 9.14286L382.593 9.14286L382.593 18.2857L410.022 18.2857L410.022 27.4286L382.593 27.4286L382.593 54.8571L410.022 54.8571L410.022 64L373.451 64Z"   fill="url(#linear_fill_2_12)" >
    </path>
    <path d="M426.901 64L426.901 18.2857L436.044 18.2857L436.044 64L426.901 64ZM426.901 9.14286L426.901 0L436.044 0L436.044 9.14286L426.901 9.14286Z"   fill="url(#linear_fill_2_13)" >
    </path>
    <path d="M462.418 64L462.418 54.8571L471.56 54.8571L471.56 64L462.418 64ZM453.275 54.8571L453.275 27.4286L444.132 27.4286L444.132 18.2857L453.275 18.2857L453.275 0L462.418 0L462.418 18.2857L471.56 18.2857L471.56 27.4286L462.418 27.4286L462.418 54.8571L453.275 54.8571Z"   fill="url(#linear_fill_2_14)" >
    </path>
    <path d="M478.945 64L478.945 54.8571L515.517 54.8571L515.517 64L478.945 64ZM515.517 54.8571L515.517 45.7143L524.659 45.7143L524.659 54.8571L515.517 54.8571ZM488.088 45.7143L488.088 36.5714L515.517 36.5714L515.517 45.7143L488.088 45.7143ZM478.945 36.5714L478.945 27.4286L488.088 27.4286L488.088 36.5714L478.945 36.5714ZM488.088 27.4286L488.088 18.2857L524.659 18.2857L524.659 27.4286L488.088 27.4286Z"   fill="url(#linear_fill_2_15)" >
    </path>
    <path d="M105.33 0.5L114.33 0.5L114.33 64.5L105.33 64.5L105.33 0.5Z"   fill="url(#linear_fill_2_16)" fill-opacity="1">
    </path>
    <defs>
        <linearGradient id="linear_fill_2_4" x1="0" y1="32" x2="45.71428680419922" y2="32" gradientUnits="userSpaceOnUse">
            <stop offset="0" stop-color="#000000"  />
            <stop offset="0.8542" stop-color="#374BB4"  />
        </linearGradient>
        <linearGradient id="linear_fill_2_5" x1="52.74726104736328" y1="41.142852783203125" x2="98.46155548095703" y2="41.142852783203125" gradientUnits="userSpaceOnUse">
            <stop offset="0" stop-color="#000000"  />
            <stop offset="0.8542" stop-color="#374BB4"  />
        </linearGradient>
        <linearGradient id="linear_fill_2_6" x1="105.49451446533203" y1="32" x2="142.06595611572266" y2="32" gradientUnits="userSpaceOnUse">
            <stop offset="0" stop-color="#000000"  />
            <stop offset="0.8542" stop-color="#374BB4"  />
        </linearGradient>
        <linearGradient id="linear_fill_2_7" x1="149.09893035888672" y1="41.142852783203125" x2="194.81322479248047" y2="41.142852783203125" gradientUnits="userSpaceOnUse">
            <stop offset="0" stop-color="#000000"  />
            <stop offset="0.8542" stop-color="#374BB4"  />
        </linearGradient>
        <linearGradient id="linear_fill_2_8" x1="201.84618377685547" y1="41.142852783203125" x2="247.56047821044922" y2="41.142852783203125" gradientUnits="userSpaceOnUse">
            <stop offset="0" stop-color="#000000"  />
            <stop offset="0.8542" stop-color="#374BB4"  />
        </linearGradient>
        <linearGradient id="linear_fill_2_9" x1="254.59343719482422" y1="41.142852783203125" x2="300.30773162841797" y2="41.142852783203125" gradientUnits="userSpaceOnUse">
            <stop offset="0" stop-color="#000000"  />
            <stop offset="0.8542" stop-color="#374BB4"  />
        </linearGradient>
        <linearGradient id="linear_fill_2_10" x1="307.34069061279297" y1="41.142852783203125" x2="353.0549850463867" y2="41.142852783203125" gradientUnits="userSpaceOnUse">
            <stop offset="0" stop-color="#000000"  />
            <stop offset="0.8542" stop-color="#374BB4"  />
        </linearGradient>
        <linearGradient id="linear_fill_2_12" x1="373.4505844116211" y1="32" x2="419.16487884521484" y2="32" gradientUnits="userSpaceOnUse">
            <stop offset="0" stop-color="#0058D4" stop-opacity="0.89" />
            <stop offset="1" stop-color="#00B3FF" stop-opacity="0.8" />
        </linearGradient>
        <linearGradient id="linear_fill_2_13" x1="426.9011459350586" y1="32" x2="436.04402923583984" y2="32" gradientUnits="userSpaceOnUse">
            <stop offset="0" stop-color="#0058D4" stop-opacity="0.89" />
            <stop offset="1" stop-color="#00B3FF" stop-opacity="0.8" />
        </linearGradient>
        <linearGradient id="linear_fill_2_14" x1="444.13191986083984" y1="32" x2="471.56050872802734" y2="32" gradientUnits="userSpaceOnUse">
            <stop offset="0" stop-color="#0058D4" stop-opacity="0.89" />
            <stop offset="1" stop-color="#00B3FF" stop-opacity="0.8" />
        </linearGradient>
        <linearGradient id="linear_fill_2_15" x1="478.9450912475586" y1="41.142852783203125" x2="524.6593856811523" y2="41.142852783203125" gradientUnits="userSpaceOnUse">
            <stop offset="0" stop-color="#0058D4" stop-opacity="0.89" />
            <stop offset="1" stop-color="#00B3FF" stop-opacity="0.8" />
        </linearGradient>
        <linearGradient id="linear_fill_2_16" x1="114.32967376708984" y1="0.5" x2="105.32967376708984" y2="64.50003051757812" gradientUnits="userSpaceOnUse">
            <stop offset="0" stop-color="#DB3535"  />
            <stop offset="1" stop-color="#374BB4"  />
        </linearGradient>
    </defs>
</svg>
